PathFileType	4	(X/Y/Z)	c:/Users/goper/Files/vsCode/490R/osim_files/A01/A01_Slow_04.trc
DataRate	CameraRate	NumFrames	NumMarkers	Units                	OrigDataRate	OrigDataStartFrame	OrigNumFrames
120.00	120.00	4	36	mm	120.0	1246	1661
                Frame#	Time	Mobility_markerset:LPSIS			Mobility_markerset:LASIS			Mobility_markerset:LTH1			Mobility_markerset:LTH2			Mobility_markerset:LTH3			Mobility_markerset:LTH4			Mobility_markerset:LLFE			Mobility_markerset:LMFE			Mobility_markerset:LSH1			Mobility_markerset:LSH2			Mobility_markerset:LSH3			Mobility_markerset:LSH4			Mobility_markerset:LLMAL			Mobility_markerset:LMMAL			Mobility_markerset:LCAL			Mobility_markerset:LMTP5			Mobility_markerset:LTOE			Mobility_markerset:LMTP1			Mobility_markerset:RPSIS			Mobility_markerset:RASIS			Mobility_markerset:RTH1			Mobility_markerset:RTH2			Mobility_markerset:RTH3			Mobility_markerset:RTH4			Mobility_markerset:RLFE			Mobility_markerset:RMFE			Mobility_markerset:RSH1			Mobility_markerset:RSH2			Mobility_markerset:RSH3			Mobility_markerset:RSH4			Mobility_markerset:RLMAL			Mobility_markerset:RMMAL			Mobility_markerset:RCAL			Mobility_markerset:RMTP1			Mobility_markerset:RTOE			Mobility_markerset:RMTP5		
		X1	Y1	Z1	X2	Y2	Z2	X3	Y3	Z3	X4	Y4	Z4	X5	Y5	Z5	X6	Y6	Z6	X7	Y7	Z7	X8	Y8	Z8	X9	Y9	Z9	X10	Y10	Z10	X11	Y11	Z11	X12	Y12	Z12	X13	Y13	Z13	X14	Y14	Z14	X15	Y15	Z15	X16	Y16	Z16	X17	Y17	Z17	X18	Y18	Z18	X19	Y19	Z19	X20	Y20	Z20	X21	Y21	Z21	X22	Y22	Z22	X23	Y23	Z23	X24	Y24	Z24	X25	Y25	Z25	X26	Y26	Z26	X27	Y27	Z27	X28	Y28	Z28	X29	Y29	Z29	X30	Y30	Z30	X31	Y31	Z31	X32	Y32	Z32	X33	Y33	Z33	X34	Y34	Z34	X35	Y35	Z35	X36	Y36	Z36

1246	10.37500	-1274.47522	1341.88281	3049.51465	0.00000	0.00000	0.00000	0.00000	0.00000	0.00000	0.00000	0.00000	0.00000	-4355.23242	1048.02197	790.50067	0.00000	0.00000	0.00000	0.00000	0.00000	0.00000	0.00000	0.00000	0.00000	-4118.34814	991.51770	971.46399	0.00000	0.00000	0.00000	0.00000	0.00000	0.00000	0.00000	0.00000	0.00000	-4207.56934	89.95118	1106.50403	-4284.43652	97.97675	1141.34595	-4284.88477	58.32740	1066.70081	-4125.97070	57.20522	1227.32019	-4168.06641	87.02477	1279.74365	-4210.41113	73.78619	1277.33008	0.00000	0.00000	0.00000	-4242.98682	564.58411	1095.54248	-4487.58496	684.52051	816.83722	-4481.78564	640.88086	816.91016	-4480.22607	677.78882	878.79193	-4477.06689	636.24347	868.81561	-4450.19922	495.92319	812.48615	0.00000	0.00000	0.00000	-4452.25781	351.73438	642.66681	-4453.95215	309.52228	625.90515	-4465.15771	325.44595	696.24377	-4465.60010	286.67294	673.66821	-4432.39990	136.70407	573.36780	0.00000	0.00000	0.00000	-4372.83301	118.98048	526.35217	-4395.61719	50.70834	719.59271	-4448.37842	53.88950	740.13165	-4495.22119	40.45248	665.86243
1247	10.38333	-1274.89478	1341.88599	3049.03857	0.00000	0.00000	0.00000	0.00000	0.00000	0.00000	0.00000	0.00000	0.00000	-4354.70459	1047.87952	797.72101	0.00000	0.00000	0.00000	0.00000	0.00000	0.00000	0.00000	0.00000	0.00000	-4116.16943	990.98694	978.70172	0.00000	0.00000	0.00000	0.00000	0.00000	0.00000	0.00000	0.00000	0.00000	-4207.49365	89.72280	1107.04443	-4284.08496	97.58161	1141.93408	-4284.74951	58.28487	1067.06958	-4125.80762	55.68280	1227.62854	-4168.06982	85.39260	1280.56250	-4210.17334	72.24973	1277.76025	0.00000	0.00000	0.00000	-4242.18457	564.10779	1099.77954	-4486.39502	684.01233	825.21173	-4480.61963	640.35229	825.24683	-4478.68408	677.28497	887.10364	-4475.66455	635.73877	877.11145	-4449.29688	495.42093	820.28442	0.00000	0.00000	0.00000	-4451.83398	353.55481	648.29010	-4453.67236	311.55432	630.82922	-4464.72119	326.53314	701.47461	-4465.26318	288.05698	678.31018	-4432.67090	139.62708	575.73578	0.00000	0.00000	0.00000	-4373.10938	122.75890	528.37793	-4395.75732	50.87383	720.08392	-4448.21240	54.51446	740.04712	-4495.25244	40.97419	666.33539
1248	10.39167	-1275.32751	1341.90991	3048.50977	0.00000	0.00000	0.00000	0.00000	0.00000	0.00000	0.00000	0.00000	0.00000	-4353.10010	1047.66724	806.08923	0.00000	0.00000	0.00000	0.00000	0.00000	0.00000	0.00000	0.00000	0.00000	-4113.97510	990.52283	986.11328	0.00000	0.00000	0.00000	0.00000	0.00000	0.00000	0.00000	0.00000	0.00000	-4207.41260	89.47412	1107.71155	-4283.84766	97.24562	1142.43335	-4284.63916	58.36673	1067.29224	-4125.92188	54.29536	1228.15247	-4168.02637	83.63046	1280.72180	-4210.33008	70.73006	1278.30273	0.00000	0.00000	0.00000	-4241.30176	563.67737	1104.00598	-4485.15820	683.57068	833.91522	-4479.44482	639.91406	833.94958	-4477.09326	676.88629	895.76917	-4474.18164	635.37469	885.79858	-4448.35449	494.97403	828.47803	0.00000	0.00000	0.00000	-4451.42773	355.56033	654.25372	-4453.38965	313.83688	636.15680	-4464.36035	327.74609	706.98914	-4465.03906	289.65640	683.26453	-4433.03271	142.75737	578.32861	0.00000	0.00000	0.00000	-4373.55127	126.97283	530.64703	-4396.01758	51.11087	720.65387	-4447.90088	55.26478	739.88538	-4495.26025	41.52010	666.86456
1249	10.40000	-1275.82166	1341.99585	3047.94336	0.00000	0.00000	0.00000	0.00000	0.00000	0.00000	0.00000	0.00000	0.00000	-4350.40674	1047.24780	815.43427	0.00000	0.00000	0.00000	0.00000	0.00000	0.00000	0.00000	0.00000	0.00000	-4111.59424	990.45111	993.43372	0.00000	0.00000	0.00000	0.00000	0.00000	0.00000	0.00000	0.00000	0.00000	-4207.37012	89.18117	1108.50842	-4283.66357	96.88956	1143.02087	-4284.45459	58.55525	1067.51538	-4126.20312	52.64770	1229.03430	-4168.30713	81.76220	1281.74402	-4210.73145	68.84933	1279.10754	0.00000	0.00000	0.00000	-4240.37158	563.21844	1108.26990	-4483.86426	683.25806	842.99670	-4478.19434	639.58002	843.04797	-4475.40771	676.64868	904.82404	-4472.54639	635.04547	894.90381	-4447.50977	494.67783	837.08704	0.00000	0.00000	0.00000	-4451.06738	357.76154	660.55835	-4453.20850	316.36203	641.81970	-4464.07129	329.17908	712.87109	-4464.89795	291.49417	688.53613	-4433.50244	146.17036	581.24609	0.00000	0.00000	0.00000	-4373.96631	131.51048	533.32996	-4396.37549	51.47309	721.31055	-4447.66064	56.15073	739.64014	-4495.34717	42.16778	667.40503
